<svg xmlns="http://www.w3.org/2000/svg" viewBox="0 0 512 512">
  <defs>
    <linearGradient id="cf-grad" x1="0%" y1="0%" x2="100%" y2="100%">
      <stop offset="0%" stop-color="#2dd4bf"/>
      <stop offset="100%" stop-color="#0ea5e9"/>
    </linearGradient>
  </defs>
  <rect width="512" height="512" rx="96" fill="#fff"/>
  <!-- C letter -->
  <path d="M108 256c0-88.4 71.6-160 160-160 38.2 0 73.3 13.4 100.8 35.8l-36.4 42.8C311.6 157.2 285 148 268 148c-59.6 0-108 48.4-108 108s48.4 108 108 108c17 0 43.6-9.2 64.4-26.6l36.4 42.8C341.3 402.6 306.2 416 268 416c-88.4 0-160-71.6-160-160z" fill="url(#cf-grad)"/>
  <!-- F letter -->
  <path d="M300 148h108v48H348v44h52v48h-52v128h-48V148z" fill="url(#cf-grad)"/>
  <!-- Upward trend line -->
  <path d="M148 340l60-70 40 30 64-90" fill="none" stroke="#fff" stroke-width="14" stroke-linecap="round" stroke-linejoin="round"/>
  <!-- Arrow tip -->
  <polygon points="312,210 298,234 322,228" fill="#fff"/>
</svg>
